HIERARCHY
ROOT Hips
{
	OFFSET 0.000000 0.000000 0.000000
	CHANNELS 6 Xposition Yposition Zposition Xrotation Yrotation Zrotation
	JOINT LeftUpLeg_virtual
	{
		OFFSET 0.000000 0.000000 0.000000
		CHANNELS 3 Xrotation Yrotation Zrotation
		JOINT LeftUpLeg
		{
			OFFSET 15.427100 -6.655098 0.678600
			CHANNELS 3 Xrotation Yrotation Zrotation
			JOINT LeftLeg
			{
				OFFSET 4.081073 -39.591068 13.024000
				CHANNELS 3 Xrotation Yrotation Zrotation
				JOINT LeftFoot
				{
					OFFSET -4.081074 -37.707932 -15.979700
					CHANNELS 3 Xrotation Yrotation Zrotation
					JOINT LeftToeBase
					{
						OFFSET 5.346399 -15.068900 20.645000
						CHANNELS 3 Xrotation Yrotation Zrotation
						JOINT LeftToe_End
						{
							OFFSET 2.754700 0.931300 11.300900
							CHANNELS 3 Xrotation Yrotation Zrotation
							End Site
							{
								OFFSET 0 0 0
							}
						}
					}
				}
			}
		}
	}
	JOINT RightUpLeg_virtual
	{
		OFFSET 0.000000 0.000000 0.000000
		CHANNELS 3 Xrotation Yrotation Zrotation
		JOINT RightUpLeg
		{
			OFFSET -15.569500 -6.655098 0.678600
			CHANNELS 3 Xrotation Yrotation Zrotation
			JOINT RightLeg
			{
				OFFSET -4.081825 -39.591045 13.023800
				CHANNELS 3 Xrotation Yrotation Zrotation
				JOINT RightFoot
				{
					OFFSET 4.081824 -37.707954 -15.979600
					CHANNELS 3 Xrotation Yrotation Zrotation
					JOINT RightToeBase
					{
						OFFSET -5.346400 -15.068900 20.645000
						CHANNELS 3 Xrotation Yrotation Zrotation
						JOINT RightToe_End
						{
							OFFSET -2.754700 0.931300 11.300900
							CHANNELS 3 Xrotation Yrotation Zrotation
							End Site
							{
								OFFSET 0 0 0
							}
						}
					}
				}
			}
		}
	}
	JOINT Spine_virtual
	{
		OFFSET 0.000000 0.000000 0.000000
		CHANNELS 3 Xrotation Yrotation Zrotation
		JOINT Spine
		{
			OFFSET -0.279200 12.230698 -2.892100
			CHANNELS 3 Xrotation Yrotation Zrotation
			JOINT Spine1
			{
				OFFSET -0.232667 10.192268 -1.242267
				CHANNELS 3 Xrotation Yrotation Zrotation
				JOINT Spine1_split
				{
					OFFSET -0.232667 10.192268 -1.242267
					CHANNELS 3 Xrotation Yrotation Zrotation
					JOINT Spine2
					{
						OFFSET -0.232667 10.192268 -1.242267
						CHANNELS 3 Xrotation Yrotation Zrotation
						JOINT Neck_virtual
						{
							OFFSET 0.000000 0.000000 0.000000
							CHANNELS 3 Xrotation Yrotation Zrotation
							JOINT Neck
							{
								OFFSET -0.418800 17.814194 8.416900
								CHANNELS 3 Xrotation Yrotation Zrotation
								JOINT Head
								{
									OFFSET 0.000000 7.031097 3.806800
									CHANNELS 3 Xrotation Yrotation Zrotation
									JOINT HeadTop_End
									{
										OFFSET 0.000000 24.646606 12.978600
										CHANNELS 3 Xrotation Yrotation Zrotation
										End Site
										{
											OFFSET 0 0 0
										}
									}
								}
							}
						}
						JOINT LeftShoulder_virtual
						{
							OFFSET 0.000000 0.000000 0.000000
							CHANNELS 3 Xrotation Yrotation Zrotation
							JOINT LeftShoulder
							{
								OFFSET 8.476499 7.247704 -3.868750
								CHANNELS 3 Xrotation Yrotation Zrotation
								JOINT LeftShoulder_split
								{
									OFFSET 8.476499 7.247704 -3.868750
									CHANNELS 3 Xrotation Yrotation Zrotation
									JOINT LeftArm
									{
										OFFSET 9.308998 -2.777710 0.208600
										CHANNELS 3 Xrotation Yrotation Zrotation
										JOINT LeftForeArm
										{
											OFFSET 29.972298 0.000000 0.000000
											CHANNELS 3 Xrotation Yrotation Zrotation
											JOINT LeftHand
											{
												OFFSET 26.026505 0.000000 0.000000
												CHANNELS 3 Xrotation Yrotation Zrotation
												End Site
												{
													OFFSET 0 0 0
												}
											}
										}
									}
								}
							}
						}
						JOINT RightShoulder_virtual
						{
							OFFSET 0.000000 0.000000 0.000000
							CHANNELS 3 Xrotation Yrotation Zrotation
							JOINT RightShoulder
							{
								OFFSET -7.570500 7.247704 -3.868750
								CHANNELS 3 Xrotation Yrotation Zrotation
								JOINT RightShoulder_split
								{
									OFFSET -7.570500 7.247704 -3.868750
									CHANNELS 3 Xrotation Yrotation Zrotation
									JOINT RightArm
									{
										OFFSET -9.308998 -2.777710 0.208500
										CHANNELS 3 Xrotation Yrotation Zrotation
										JOINT RightForeArm
										{
											OFFSET -29.972300 0.000000 0.000000
											CHANNELS 3 Xrotation Yrotation Zrotation
											JOINT RightHand
											{
												OFFSET -26.026505 0.000000 0.000000
												CHANNELS 3 Xrotation Yrotation Zrotation
												End Site
												{
													OFFSET 0 0 0
												}
											}
										}
									}
								}
							}
						}
					}
				}
			}
		}
	}
}
MOTION
Frames: 5
Frame Time: 0.03333333
-0.260066 81.827827 -0.953213 0.000000 0.000000 0.000000 5.687744 -63.273506 6.920768 -30.584501 6.916594 28.424655 36.638781 -6.171117 -9.951331 -11.293684 0.167737 -9.481003 0.128238 0.729958 0.145795 0.000000 0.000000 0.000000 2.507189 -61.652108 5.440103 -28.417043 -7.054075 -31.159429 44.207990 1.441811 -6.353026 -16.600896 1.762682 17.281408 1.911723 0.975383 -0.452944 0.000000 0.000000 0.000000 6.232363 -64.249418 6.893473 8.770208 1.070992 0.086413 10.259407 1.138173 -4.992805 0.506667 -1.310170 1.073224 0.000000 0.000000 0.000000 10.819213 0.536600 -3.977024 -17.499243 21.165730 11.259244 7.699466 34.348605 -7.294960 0.000000 0.000000 0.000000 11.169303 1.075770 -4.052747 -4.661637 -14.097951 0.154627 5.182322 -2.244184 -6.579175 -14.268235 9.198636 -25.388855 7.079748 -52.073376 3.312137 0.000000 0.000000 0.000000 11.278093 0.233659 -4.899272 -6.059968 15.252282 9.252908 -0.028708 4.339005 2.194336 -46.392663 -15.543595 32.215284 -146.963104 64.498918 147.860454 0.000000 0.000000 0.000000 
-0.527284 81.802444 -0.546421 0.000000 0.000000 0.000000 5.407549 -63.402119 6.813840 -30.992711 6.840069 28.623897 37.316431 -6.018560 -9.836850 -10.983813 0.207138 -9.497619 0.405825 0.770082 0.074823 0.000000 0.000000 0.000000 2.825046 -61.758140 5.617209 -28.507782 -6.583690 -31.062341 43.803909 1.559780 -6.409696 -15.770398 1.986247 18.582412 0.395050 0.927987 -0.495332 0.000000 0.000000 0.000000 6.116070 -64.551674 7.051005 8.893850 0.953820 0.058230 10.038213 1.001311 -4.965186 -0.050522 -1.624015 0.970426 0.000000 0.000000 0.000000 10.250237 0.475073 -4.087867 -17.720311 20.073135 11.596007 7.672733 33.352049 -6.996813 0.000000 0.000000 0.000000 10.922823 0.922598 -4.042936 -4.782162 -13.803064 -0.248809 5.044872 -1.650702 -6.921412 -12.941783 10.190808 -25.119030 7.188073 -52.186661 3.078710 0.000000 0.000000 0.000000 10.961176 0.141676 -4.928551 -6.056130 14.087802 9.802886 0.221210 4.615750 3.042590 -43.260236 -20.462302 32.756481 -143.568281 64.521457 143.868974 0.000000 0.000000 0.000000 
-0.637299 81.568886 -0.259277 0.000000 0.000000 0.000000 5.337700 -62.791616 7.004833 -31.944375 6.264198 28.420793 38.800812 -5.822312 -9.591497 -10.850132 0.091203 -9.461922 0.848686 0.837396 -0.249925 0.000000 0.000000 0.000000 3.368322 -61.170478 6.136541 -28.716093 -5.910669 -31.207250 44.015576 1.319298 -6.722968 -14.975910 2.344216 19.901839 -1.114434 0.888065 -0.353279 0.000000 0.000000 0.000000 6.413540 -64.155817 7.724804 9.159955 0.616573 -0.205638 9.570256 0.780830 -5.012520 -0.173617 -2.457911 0.790616 0.000000 0.000000 0.000000 9.441102 0.357237 -4.219228 -18.182882 18.332930 11.031173 5.964185 30.610053 -5.314976 0.000000 0.000000 0.000000 10.339697 0.673730 -4.113115 -4.909128 -13.227312 -1.149493 4.451295 -1.139452 -6.854734 -11.485931 11.544829 -24.685111 5.512784 -53.326429 1.164862 0.000000 0.000000 0.000000 10.277778 -0.000984 -4.949928 -5.819502 12.732787 10.381965 -0.411346 5.337734 4.129760 -39.638139 -25.921606 31.822736 -133.934627 60.919755 133.699601 0.000000 0.000000 0.000000 
-0.610571 81.066223 -0.038982 0.000000 0.000000 0.000000 5.467806 -61.610526 7.477549 -33.408081 5.215164 27.709017 41.057292 -5.603587 -9.223203 -10.982590 -0.198886 -9.386156 1.094556 0.895382 -0.625550 0.000000 0.000000 0.000000 4.036346 -59.944773 6.957140 -28.982070 -5.004996 -31.633260 44.792114 0.623041 -7.384124 -14.976715 2.606117 20.849513 -1.823300 0.874395 -0.100610 0.000000 0.000000 0.000000 6.970508 -62.983080 8.766647 9.532740 0.154635 -0.617585 8.957762 0.549232 -5.089369 0.154328 -3.068752 0.672888 0.000000 0.000000 0.000000 8.527510 0.250820 -4.347231 -18.915628 16.002235 9.710588 3.039742 26.260921 -2.911563 0.000000 0.000000 0.000000 9.513187 0.413568 -4.213443 -5.025458 -12.354842 -2.394133 3.696980 -1.057350 -6.375903 -10.216332 12.927443 -24.155811 2.516060 -55.251559 -2.014442 0.000000 0.000000 0.000000 9.289114 -0.156523 -4.957135 -5.367039 11.326932 10.901981 -1.573728 5.894848 5.119733 -36.130697 -30.960424 29.788518 -124.073788 54.073081 123.350457 0.000000 0.000000 0.000000 
-0.426559 80.257324 0.223083 0.000000 0.000000 0.000000 5.764199 -59.969143 8.243536 -35.235628 3.777728 26.399159 43.955327 -5.361719 -8.720553 -11.372589 -0.577961 -9.328926 1.021630 0.909152 -0.870123 0.000000 0.000000 0.000000 4.539744 -58.321954 7.895951 -29.503446 -3.783806 -32.365849 46.362088 -0.550534 -8.412760 -16.011283 2.581795 21.353208 -1.738691 0.904279 0.206133 0.000000 0.000000 0.000000 7.534355 -61.225447 9.939672 9.926120 -0.270599 -1.028373 8.251389 0.398560 -5.125732 0.523972 -3.446738 0.764867 0.000000 0.000000 0.000000 7.621723 0.212932 -4.433545 -19.894968 13.259810 7.928157 -0.366300 20.770190 -0.570220 0.000000 0.000000 0.000000 8.515031 0.247135 -4.266859 -5.103782 -11.340243 -3.826983 2.972387 -1.175815 -5.766533 -9.457487 14.221014 -24.007329 -0.714553 -56.938287 -5.562915 0.000000 0.000000 0.000000 8.148022 -0.263498 -4.898633 -4.885962 10.108297 11.254094 -1.949661 6.194065 5.206879 -33.296103 -34.731136 27.122386 -115.774630 46.061863 114.588581 0.000000 0.000000 0.000000 
